#!OML:ASF I:\Actors\actors\Patient Classification 2\Patient 1\Session 1\actor1.ASF
:FULLY-SPECIFIED
:DEGREES
1038
root -0.569145 18.7196 5.69196 2.65908 1.41182 0.809411
lowerback 8.54765 2.87767 -6.07024
upperback 0.00624214 3.10612 -2.33403
thorax -4.98725 1.64994 0.567708
lowerneck -4.64184 -8.66908 -7.17519
upperneck 40.5297 -13.5345 4.84548
head 16.1506 -6.23906 1.35581
rclavicle 2.69353e-014 -2.14687e-014
rhumerus -33.1564 15.5818 -63.3995
rradius 77.4186
rwrist -35.214
rhand 2.90272 -82.4217
rfingers 7.12502
rthumb 28.3676 -249.708
lclavicle 2.69353e-014 -2.14687e-014
lhumerus -48.5555 -13.8153 90.9533
lradius 68.9
lwrist 22.8715
lhand -7.95215 -8.65807
lfingers 7.12502
lthumb 17.9549 20.5331
rfemur 3.99491 1.37948 13.2613
rtibia -9.54166e-015
rfoot -14.9027 -11.0257
rtoes -4.34118
lfemur -6.78724 -4.77788 -14.8111
ltibia 21.2345
lfoot -20.8167 14.4616
ltoes -55.6549
1039
root -0.588677 18.723 5.69329 2.81091 1.49871 0.906334
lowerback 8.56087 2.98496 -6.04818
upperback 0.0817911 3.24779 -2.45476
thorax -4.91514 1.71521 0.412622
lowerneck -4.70406 -8.70233 -7.16141
upperneck 40.5871 -13.6149 4.94344
head 16.2145 -6.25194 1.3796
rclavicle 5.92378e-014 9.54166e-015
rhumerus -31.7072 16.8283 -62.4648
rradius 76.2391
rwrist -34.7867
rhand 1.9266 -79.2489
rfingers 7.12502
rthumb 27.4344 -252.729
lclavicle 5.92378e-014 9.54166e-015
lhumerus -48.4848 -14.027 90.7887
lradius 68.8637
lwrist 22.8432
lhand -7.92275 -8.65202
lfingers 7.12502
lthumb 17.9832 20.5366
rfemur 3.85295 1.27043 13.2063
rtibia -1.27222e-014
rfoot -14.9095 -10.9819
rtoes -3.99299
lfemur -6.9152 -4.89919 -14.8558
ltibia 21.1577
lfoot -20.7768 14.5474
ltoes -55.674
1040
root -0.608151 18.7255 5.69682 2.96019 1.62052 1.01176
lowerback 8.537 3.06868 -6.01105
upperback 0.163143 3.36372 -2.56753
thorax -4.81358 1.76721 0.263523
lowerneck -4.71035 -8.71238 -7.07618
upperneck 40.5968 -13.6586 5.00894
head 16.2244 -6.24571 1.38733
rclavicle 3.34952e-014 -3.26007e-014
rhumerus -30.1529 17.6742 -61.3263
rradius 75.2647
rwrist -36.1492
rhand 3.091 -81.196
rfingers 7.12502
rthumb 28.5475 -250.963
lclavicle 3.34952e-014 -3.26007e-014
lhumerus -48.4012 -14.2157 90.6301
lradius 68.808
lwrist 22.8488
lhand -7.79444 -8.6116
lfingers 7.12502
lthumb 18.1066 20.5656
rfemur 3.73447 1.12612 13.146
rtibia -7.95139e-016
rfoot -14.8837 -10.9549
rtoes -3.96818
lfemur -7.02516 -5.1218 -14.9118
ltibia 21.0807
lfoot -20.7963 14.6727
ltoes -55.6224
1041
root -0.632999 18.7313 5.68947 3.17032 1.82233 0.913841
lowerback 8.60699 3.0917 -5.82529
upperback 0.199123 3.4087 -2.5725
thorax -4.80587 1.78455 0.147194
lowerneck -4.73136 -8.71685 -6.90974
upperneck 40.586 -13.62 4.85488
head 16.1848 -6.21983 1.30016
rclavicle -3.8266e-014 1.43125e-014
rhumerus -28.681 18.7521 -60.3638
rradius 74.2434
rwrist -36.1911
rhand 1.96528 -79.8156
rfingers 7.12502
rthumb 27.4714 -252.168
lclavicle -3.8266e-014 1.43125e-014
lhumerus -48.3302 -14.2822 90.4799
lradius 68.78
lwrist 22.8507
lhand -7.70011 -8.51102
lfingers 7.12502
lthumb 18.1974 20.6578
rfemur 3.51573 0.905443 13.344
rtibia 3.97569e-015
rfoot -14.8014 -10.9636
rtoes -4.17303
lfemur -7.2793 -5.24226 -14.6871
ltibia 20.9905
lfoot -20.635 14.7228
ltoes -55.6704
1042
root -0.659126 18.7383 5.68164 3.36871 1.99801 0.784377
lowerback 8.67738 3.11998 -5.60025
upperback 0.261699 3.46779 -2.54235
thorax -4.77057 1.80765 0.04479
lowerneck -4.79307 -8.70851 -6.68906
upperneck 40.5305 -13.532 4.61549
head 16.111 -6.17483 1.17409
rclavicle -1.14301e-014 6.2816e-014
rhumerus -27.2051 19.7275 -59.4254
rradius 73.1589
rwrist -36.1968
rhand 4.60439 -81.6868
rfingers 7.12502
rthumb 29.9926 -250.725
lclavicle -1.14301e-014 6.2816e-014
lhumerus -48.1782 -14.3107 90.3475
lradius 68.7288
lwrist 22.854
lhand -7.73778 -8.50411
lfingers 7.12502
lthumb 18.1611 20.668
rfemur 3.29573 0.715163 13.5811
rtibia -1.03368e-014
rfoot -14.6996 -10.977
rtoes -4.19555
lfemur -7.52635 -5.36564 -14.4285
ltibia 20.896
lfoot -20.4723 14.845
ltoes -55.7447
1043
root -0.682411 18.7437 5.67874 3.49097 2.10896 0.772872
lowerback 8.72533 3.1889 -5.42212
upperback 0.378221 3.57825 -2.56433
thorax -4.66753 1.85505 -0.0893518
lowerneck -4.87829 -8.70213 -6.48803
upperneck 40.479 -13.4996 4.51752
head 16.0686 -6.13777 1.10167
rclavicle -1.70955e-014 7.95139e-015
rhumerus -25.7653 20.5124 -58.5275
rradius 72.0009
rwrist -36.7586
rhand 4.58275 -80.9846
rfingers 7.12502
rthumb 29.9719 -251.423
lclavicle -1.70955e-014 7.95139e-015
lhumerus -47.948 -14.425 90.2125
lradius 68.6437
lwrist 22.9057
lhand -7.83255 -8.56147
lfingers 7.12502
lthumb 18.07 20.6191
rfemur 3.15794 0.592214 13.6676
rtibia 4.77083e-015
rfoot -14.639 -10.9801
rtoes -3.74148
lfemur -7.66147 -5.64509 -14.3419
ltibia 20.8237
lfoot -20.5241 15.1285
ltoes -55.7556
1044
root -0.702867 18.7485 5.67812 3.57892 2.20613 0.794737
lowerback 8.78794 3.25058 -5.21322
upperback 0.500847 3.68022 -2.61206
thorax -4.56165 1.8977 -0.26659
lowerneck -5.01093 -8.69505 -6.25709
upperneck 40.5007 -13.478 4.41503
head 16.0747 -6.09857 1.01755
rclavicle -2.54444e-014 -1.11319e-014
rhumerus -24.4557 21.1206 -57.7359
rradius 71.237
rwrist -36.886
rhand 4.49441 -81.2918
rfingers 7.12502
rthumb 29.8876 -251.101
lclavicle -2.54444e-014 -1.11319e-014
lhumerus -47.7207 -14.4968 90.0523
lradius 68.54
lwrist 22.9453
lhand -7.81864 -8.58423
lfingers 7.12502
lthumb 18.0833 20.5951
rfemur 3.06451 0.484943 13.7084
rtibia 8.74653e-015
rfoot -14.6104 -11.0027
rtoes -3.21693
lfemur -7.75094 -6.02575 -14.314
ltibia 20.7595
lfoot -20.6556 15.5041
ltoes -55.8447
1045
root -0.72371 18.754 5.6787 3.6984 2.33403 0.80341
lowerback 8.79478 3.28982 -5.00699
upperback 0.628983 3.75773 -2.63528
thorax -4.41901 1.92865 -0.409804
lowerneck -5.06381 -8.68738 -6.0397
upperneck 40.4537 -13.4622 4.34328
head 16.0303 -6.06443 0.952862
rclavicle -8.20981e-014 4.21423e-014
rhumerus -23.3645 21.637 -57.1028
rradius 70.5478
rwrist -36.7559
rhand 4.54276 -81.4325
rfingers 7.12502
rthumb 29.9338 -250.968
lclavicle -8.20981e-014 4.21423e-014
lhumerus -47.4795 -14.5371 89.9152
lradius 68.4583
lwrist 22.9286
lhand -7.78535 -8.62534
lfingers 7.12502
lthumb 18.1154 20.5511
rfemur 2.94962 0.34453 13.7672
rtibia 2.22639e-014
rfoot -14.5311 -11.0485
rtoes -3.0283
lfemur -7.87668 -6.31129 -14.2533
ltibia 20.7005
lfoot -20.6787 15.732
ltoes -55.8865
1046
root -0.744974 18.7601 5.6804 3.85756 2.48845 0.806357
lowerback 8.69291 3.33804 -4.81942
upperback 0.779616 3.85538 -2.62864
thorax -4.19558 1.96967 -0.506349
lowerneck -5.02081 -8.72928 -5.90175
upperneck 40.3393 -13.5344 4.35343
head 15.9521 -6.07322 0.927571
rclavicle -7.07673e-014 4.77083e-015
rhumerus -22.507 22.117 -56.5594
rradius 69.9439
rwrist -36.8137
rhand 3.58123 -80.8764
rfingers 7.12502
rthumb 29.0158 -251.363
lclavicle -7.07673e-014 4.77083e-015
lhumerus -47.2074 -14.6543 89.8577
lradius 68.4353
lwrist 22.8868
lhand -7.85333 -8.66888
lfingers 7.12502
lthumb 18.05 20.5136
rfemur 2.79522 0.174174 13.8377
rtibia 2.38542e-015
rfoot -14.4014 -11.127
rtoes -3.24667
lfemur -8.06009 -6.38995 -14.1571
ltibia 20.6714
lfoot -20.6324 15.6693
ltoes -55.6505
1047
root -0.765063 18.7661 5.68488 4.03306 2.66879 0.838241
lowerback 8.57262 3.38637 -4.67075
upperback 0.879172 3.94783 -2.61831
thorax -4.01774 2.01039 -0.577495
lowerneck -4.90424 -8.79589 -5.91929
upperneck 40.283 -13.6665 4.47723
head 15.9218 -6.11693 0.969578
rclavicle 1.49089e-014 1.35174e-014
rhumerus -21.9826 22.5449 -56.1279
rradius 69.505
rwrist -37.0585
rhand 2.41856 -80.3465
rfingers 7.12502
rthumb 27.9048 -251.707
lclavicle 1.49089e-014 1.35174e-014
lhumerus -47.0341 -14.7517 89.8469
lradius 68.4491
lwrist 22.8502
lhand -7.82035 -8.67933
lfingers 7.12502
lthumb 18.0817 20.5002
rfemur 2.64138 -0.0253984 13.8824
rtibia -1.03368e-014
rfoot -14.3596 -11.1979
rtoes -3.2304
lfemur -8.2811 -6.33821 -14.0847
ltibia 20.6675
lfoot -20.5073 15.5303
ltoes -55.4484
1048
root -0.785382 18.772 5.69006 4.22707 2.87359 0.875867
lowerback 8.54158 3.40578 -4.58646
upperback 0.870937 3.98415 -2.60668
thorax -4.00506 2.02722 -0.614929
lowerneck -4.73441 -8.8339 -6.10571
upperneck 40.3141 -13.7934 4.74814
head 15.96 -6.16549 1.10449
rclavicle 7.55382e-015 -1.82882e-014
rhumerus -21.7437 22.668 -55.9487
rradius 69.2075
rwrist -37.097
rhand 2.45308 -80.2173
rfingers 7.12502
rthumb 27.9378 -251.841
lclavicle 7.55382e-015 -1.82882e-014
lhumerus -47.0072 -14.7793 89.8299
lradius 68.4753
lwrist 22.8527
lhand -7.59088 -8.74262
lfingers 7.12502
lthumb 18.3025 20.4163
rfemur 2.47596 -0.251425 13.9236
rtibia -1.59028e-014
rfoot -14.3925 -11.2399
rtoes -2.90815
lfemur -8.53879 -6.32053 -14.0174
ltibia 20.6762
lfoot -20.3442 15.4758
ltoes -55.5216
1049
root -0.80401 18.776 5.69632 4.3935 3.06864 0.886327
lowerback 8.55994 3.39665 -4.4971
upperback 0.852667 3.97887 -2.60131
thorax -4.02849 2.02373 -0.660041
lowerneck -4.68516 -8.85242 -6.16553
upperneck 40.3432 -13.8713 4.90726
head 15.9958 -6.18603 1.17247
rclavicle -4.55217e-014 3.26007e-014
rhumerus -21.6018 22.5199 -56.0185
rradius 69.0048
rwrist -37.144
rhand 3.28996 -80.1399
rfingers 7.12502
rthumb 28.7376 -252.051
lclavicle -4.55217e-014 3.26007e-014
lhumerus -46.9852 -14.8162 89.7885
lradius 68.5412
lwrist 22.9039
lhand -7.43977 -8.77044
lfingers 7.12502
lthumb 18.4478 20.3748
rfemur 2.3402 -0.46289 13.9863
rtibia -1.03368e-014
rfoot -14.398 -11.2757
rtoes -2.83809
lfemur -8.76103 -6.46507 -13.9358
ltibia 20.6995
lfoot -20.3138 15.5027
ltoes -55.5918
1050
root -0.820763 18.7776 5.70494 4.45492 3.27714 0.809941
lowerback 8.66242 3.37901 -4.30554
upperback 0.838043 3.96727 -2.58315
thorax -4.08885 2.01573 -0.752841
lowerneck -4.71187 -8.86548 -6.0496
upperneck 40.3632 -13.9012 4.8846
head 16.001 -6.18113 1.13806
rclavicle 2.10712e-014 -7.95139e-016
rhumerus -21.6225 22.3009 -56.2159
rradius 68.9588
rwrist -36.9648
rhand 3.97915 -79.9898
rfingers 7.12502
rthumb 29.3958 -252.315
lclavicle 2.10712e-014 -7.95139e-016
lhumerus -47.0439 -14.9228 89.7751
lradius 68.6632
lwrist 22.96
lhand -7.50419 -8.70306
lfingers 7.12502
lthumb 18.3859 20.448
rfemur 2.3306 -0.670831 14.1441
rtibia 6.36111e-015
rfoot -14.4163 -11.2792
rtoes -2.72887
lfemur -8.8692 -6.70771 -13.7768
ltibia 20.7371
lfoot -20.3392 15.5503
ltoes -55.5402
1051
root -0.836984 18.7782 5.71542 4.43963 3.48811 0.68887
lowerback 8.82684 3.36392 -4.08538
upperback 0.79491 3.95775 -2.55236
thorax -4.21261 2.00887 -0.853973
lowerneck -4.69166 -8.87059 -5.97606
upperneck 40.3909 -13.9211 4.88128
head 16.0051 -6.17747 1.12302
rclavicle 1.23048e-013 -4.53229e-014
rhumerus -21.872 22.0642 -56.5421
rradius 68.9396
rwrist -36.6203
rhand 4.43072 -79.8414
rfingers 7.12502
rthumb 29.8268 -252.54
lclavicle 1.23048e-013 -4.53229e-014
lhumerus -47.1923 -15.042 89.7896
lradius 68.7298
lwrist 22.9743
lhand -7.59615 -8.66592
lfingers 7.12502
lthumb 18.2974 20.4935
rfemur 2.41218 -0.87063 14.3512
rtibia -7.95139e-015
rfoot -14.483 -11.2551
rtoes -2.47114
lfemur -8.87454 -6.89566 -13.5729
ltibia 20.7841
lfoot -20.3862 15.4348
ltoes -55.2937
1052
root -0.850564 18.7791 5.72864 4.42104 3.62184 0.619216
lowerback 8.90651 3.34574 -3.98777
upperback 0.767833 3.9393 -2.50522
thorax -4.28171 1.9991 -0.863047
lowerneck -4.62427 -8.90524 -5.76173
upperneck 40.2431 -13.9116 4.65551
head 15.8607 -6.17572 0.998945
rclavicle 5.36719e-015 -2.38542e-015
rhumerus -22.156 21.95 -56.9087
rradius 68.9615
rwrist -36.6216
rhand 5.09299 -80.7323
rfingers 7.12502
rthumb 30.4587 -251.764
lclavicle 5.36719e-015 -2.38542e-015
lhumerus -47.2708 -15.0308 89.7959
lradius 68.6661
lwrist 22.958
lhand -7.56814 -8.67191
lfingers 7.12502
lthumb 18.3243 20.485
rfemur 2.49372 -0.9975 14.4867
rtibia 7.95139e-016
rfoot -14.5237 -11.267
rtoes -2.62941
lfemur -8.83207 -6.98969 -13.4416
ltibia 20.8361
lfoot -20.4715 15.2562
ltoes -54.9996
